<?xml version="1.0" encoding="utf-8"?>
<!DOCTYPE svg PUBLIC "-//W3C//DTD SVG 20010904//EN" "http://www.w3.org/TR/2001/REC-SVG-20010904/DTD/svg10.dtd">
<svg version="1.0" width="750pt" height="750pt" viewBox="0 0 750 750" preserveAspectRatio="xMidYMid meet" xmlns="http://www.w3.org/2000/svg">
  <g transform="translate(0,750)scale(.075,.075)">
    <path id="path1" d="M 3949 -8578 l -1 3 -56 290 -57 289 -25 13 -25 12 -165 79 -165 78 -105 64 -105 63 -99 70 -98 70 -92 75 -91 76 -109 106 -108 105 -97 115 -97 115 -70 100 -70 100 -59 95 -58 95 -78 158 -77 158 -45 122 -46 122 -35 121 -35 121 -25 130 -25 130 -17 129 -17 129 0 250 1 250 14 110 15 110 -4 10 -5 10 -219 189 -219 190 0 8 0 8 238 412 239 413 41 73 42 72 241 418 241 417 3 3 2 2 283 -96 283 -97 13 9 13 9 116 83 115 82 100 60 100 60 165 80 165 80 125 45 124 45 104 29 103 29 110 22 109 22 90 13 90 14 193 11 192 10 172 -10 173 -11 97 -14 98 -15 97 -20 98 -20 109 -31 109 -30 121 -43 121 -43 168 -81 167 -81 110 -66 110 -66 118 -86 117 -87 284 97 284 97 3 -3 2 -2 313 -545 314 -545 207 -358 208 -357 0 -9 0 -9 -208 -180 -207 -180 -16 -18 -16 -19 14 -110 15 -110 1 -245 0 -245 -16 -135 -17 -134 -30 -146 -29 -146 -36 -117 -35 -117 -35 -95 -35 -95 -80 -165 -80 -165 -61 -102 -62 -103 -70 -99 -70 -98 -73 -89 -74 -89 -108 -111 -107 -111 -115 -97 -115 -97 -100 -71 -100 -71 -95 -57 -95 -58 -175 -84 -175 -84 -25 -12 -24 -12 -57 -290 -56 -290 -1051 -3 -1052 -2 -1 2 z m 1939 216 l 11 47 41 215 41 215 7 18 7 18 125 50 125 50 115 58 115 58 95 58 95 59 85 60 85 60 115 97 115 96 103 107 102 106 82 102 82 103 85 130 86 130 77 150 76 150 41 103 41 102 35 110 35 110 30 128 29 127 21 160 21 160 0 230 0 230 -20 151 -21 151 -5 15 -6 14 204 177 204 177 12 14 12 14 -260 451 -261 451 -176 305 -176 305 -12 0 -13 0 -246 -85 -247 -85 -12 -5 -13 -5 -76 62 -75 63 -147 97 -147 98 -102 55 -103 56 -97 44 -98 45 -182 61 -183 60 -118 25 -118 24 -101 15 -101 16 -157 8 -156 9 -167 -9 -167 -9 -103 -14 -103 -15 -100 -20 -99 -21 -117 -35 -118 -35 -95 -35 -95 -35 -152 -72 -152 -73 -103 -63 -103 -62 -107 -78 -106 -77 -51 -43 -51 -42 -13 5 -12 5 -247 85 -247 86 -14 -3 -13 -3 -430 -743 -429 -742 -6 -14 -5 -14 213 -186 214 -186 -18 -118 -18 -117 -9 -167 -8 -167 8 -158 8 -158 15 -105 15 -105 15 -78 16 -77 16 -62 16 -63 33 -105 34 -105 41 -105 42 -105 60 -120 60 -120 51 -85 51 -85 70 -100 70 -100 97 -115 96 -115 104 -100 104 -100 103 -82 102 -83 88 -58 87 -59 70 -43 70 -43 129 -64 129 -65 111 -43 111 -44 7 -18 7 -18 41 -215 41 -215 11 -47 10 -48 878 0 878 0 10 48 z M 4870 -7285 l 0 164 -32 5 -33 5 -60 6 -60 7 -105 20 -105 20 -135 44 -135 44 -120 59 -120 58 -83 51 -83 52 -77 57 -77 58 -109 105 -108 105 -64 76 -63 76 -67 99 -66 99 -69 140 -70 140 -44 138 -44 137 -21 108 -20 107 -10 90 -10 90 0 125 0 125 10 90 10 90 20 107 20 106 41 128 41 128 39 85 39 85 -8 5 -9 6 -137 79 -136 78 26 47 27 46 39 68 39 67 7 -3 7 -4 132 -77 132 -76 8 0 8 0 65 87 64 87 106 109 105 109 76 64 76 63 99 67 99 66 137 69 138 69 140 45 140 44 110 21 110 20 85 10 85 10 128 0 127 0 87 -10 88 -10 110 -20 110 -21 137 -44 138 -44 143 -71 142 -70 88 -59 87 -59 84 -69 84 -68 106 -110 106 -110 65 -87 65 -88 9 0 9 0 106 61 106 62 32 19 32 19 40 -71 41 -70 25 -43 25 -44 -142 -83 -143 -83 -3 -2 -2 -2 39 -84 39 -85 41 -128 41 -128 20 -106 20 -107 10 -87 10 -88 0 -130 0 -130 -10 -88 -10 -87 -20 -107 -21 -108 -44 -137 -44 -138 -70 -140 -69 -140 -66 -99 -67 -99 -63 -76 -64 -76 -108 -105 -109 -105 -77 -58 -77 -57 -83 -52 -83 -52 -130 -62 -130 -62 -125 -40 -125 -40 -105 -20 -105 -20 -60 -7 -60 -6 -33 -5 -32 -5 0 -164 0 -165 -130 0 -130 0 0 165 z m 0 940 l 0 375 -150 0 -150 0 0 7 0 6 212 414 213 413 5 0 5 0 213 -413 212 -414 0 -6 0 -7 -150 0 -150 0 0 -376 0 -377 72 6 73 5 79 17 80 17 105 34 106 34 130 65 130 65 94 67 95 68 94 90 95 90 57 70 57 70 57 87 57 88 49 103 49 102 35 107 35 106 23 114 22 113 0 205 0 205 -17 92 -17 92 -30 98 -29 98 -33 79 -33 78 -8 0 -8 0 -319 -184 -320 -183 0 -7 0 -7 71 -121 71 -122 -8 -7 -9 -8 -460 -21 -459 -21 -3 3 -4 3 201 312 200 311 56 87 56 86 74 -129 74 -129 8 0 8 0 317 183 317 184 0 9 0 10 -41 57 -42 57 -121 120 -121 120 -95 67 -95 68 -130 65 -130 65 -107 35 -106 34 -114 23 -113 22 -205 0 -205 0 -113 -22 -114 -23 -106 -35 -107 -35 -102 -49 -103 -49 -88 -57 -87 -57 -79 -66 -79 -66 -71 -75 -72 -75 -47 -62 -47 -61 0 -10 0 -10 302 -175 303 -174 21 -11 22 -11 75 131 75 131 45 -69 45 -69 211 -329 212 -329 -3 -2 -3 -3 -462 21 -461 22 -7 7 -7 6 71 122 71 121 0 7 0 7 -320 184 -319 183 -8 0 -8 0 -33 -78 -33 -79 -29 -98 -30 -98 -17 -92 -17 -92 0 -205 0 -205 22 -113 23 -114 35 -106 35 -107 49 -102 49 -103 57 -88 57 -87 57 -70 57 -70 95 -90 94 -90 95 -68 94 -67 130 -65 130 -65 95 -31 95 -32 110 -23 110 -23 53 0 52 -1 0 375 z " />
  </g>
</svg>