<?xml version="1.0" encoding="utf-8"?>
<!DOCTYPE svg PUBLIC "-//W3C//DTD SVG 20010904//EN" "http://www.w3.org/TR/2001/REC-SVG-20010904/DTD/svg10.dtd">
<svg version="1.0" width="210pt" height="208.5pt" viewBox="0 0 210 208.5" preserveAspectRatio="xMidYMid meet" xmlns="http://www.w3.org/2000/svg">
  <g transform="translate(0,208.5)scale(.075,.075)">
    <path id="path1" d="M 0 -1390 l 0 1390 1400 0 1400 0 0 -1390 0 -1390 -1400 0 -1400 0 0 1390 z m 1640 -971 l 0 99 38 12 37 12 68 31 68 30 92 -91 92 -92 154 154 154 154 -83 91 -83 91 41 88 41 87 12 43 12 42 111 -2 111 -3 0 220 0 220 -109 5 -108 5 -27 75 -27 75 -26 50 -27 50 82 83 82 82 -155 155 -155 155 -50 -48 -50 -47 -36 -33 -37 -34 -58 30 -59 29 -53 17 -52 18 0 99 0 99 -220 0 -219 0 -3 -96 -3 -96 -70 -22 -70 -23 -57 -29 -58 -28 -37 34 -38 35 -50 47 -50 48 -155 -155 -155 -155 85 -85 84 -85 -32 -67 -32 -68 -19 -55 -18 -55 -119 -5 -119 -5 0 -220 0 -220 121 3 120 3 18 -58 18 -58 35 -69 34 -68 -28 -32 -28 -31 -45 -48 -45 -47 155 -155 155 -155 80 79 80 80 50 -26 50 -26 70 -23 70 -22 3 -96 3 -96 219 0 220 0 0 99 z M 1279 -1846 l -46 13 -54 29 -54 29 -50 50 -50 50 -29 54 -28 53 -14 52 -14 51 0 65 0 65 14 50 13 50 28 54 27 54 52 53 53 52 59 30 59 29 54 13 54 13 83 -6 84 -5 75 -36 76 -35 55 -55 55 -55 35 -76 36 -75 5 -84 6 -83 -13 -54 -13 -54 -29 -59 -30 -59 -52 -53 -53 -52 -54 -27 -54 -28 -50 -13 -50 -14 -70 1 -70 1 -46 12 z " />
  </g>
</svg>