<?xml version="1.0" encoding="utf-8"?>
<!DOCTYPE svg PUBLIC "-//W3C//DTD SVG 20010904//EN" "http://www.w3.org/TR/2001/REC-SVG-20010904/DTD/svg10.dtd">
<svg version="1.0" width="600pt" height="450pt" viewBox="0 0 600 450" preserveAspectRatio="xMidYMid meet" xmlns="http://www.w3.org/2000/svg">
  <g transform="translate(0,450)scale(.075,.075)">
    <path fill="white" d="M 3545 -4861 l -20 8 -76 7 -75 7 -100 33 -99 34 -56 20 -55 20 -50 24 -49 25 -40 13 -40 13 -95 52 -95 52 -70 43 -70 42 -25 23 -25 22 -158 107 -158 107 -60 47 -61 47 -91 74 -91 74 -63 39 -64 39 -59 47 -59 48 -68 40 -67 39 -40 33 -39 33 -46 26 -46 27 -85 56 -85 57 -75 46 -76 45 -34 16 -35 16 -92 35 -93 35 -23 0 -24 0 -59 20 -59 21 -90 15 -90 15 -208 6 -207 6 0 215 0 215 222 -6 223 -6 115 -20 115 -20 50 -16 50 -16 51 -9 50 -8 95 -37 94 -36 74 -31 73 -32 72 -44 71 -45 125 -80 125 -80 55 -35 55 -35 30 -24 30 -24 100 -65 100 -66 25 -22 25 -22 58 -35 59 -34 66 -56 67 -56 85 -66 85 -65 165 -113 165 -112 25 -22 25 -22 40 -23 40 -23 58 -33 57 -33 88 -37 87 -36 65 -25 65 -25 55 -20 55 -20 80 -10 80 -9 151 -5 151 -5 89 11 89 11 60 10 60 9 50 9 50 8 28 12 28 11 40 0 40 0 37 19 37 18 75 22 75 23 15 13 15 13 70 43 70 43 60 31 60 32 80 45 80 45 84 52 84 52 37 32 38 32 59 35 58 34 36 31 37 30 82 49 83 49 31 27 31 27 65 43 65 44 25 27 26 26 49 27 50 26 115 80 115 81 60 42 60 41 62 23 62 22 108 54 108 54 130 37 130 38 25 8 25 8 65 20 65 20 45 11 45 11 87 15 86 15 27 10 26 10 112 10 112 10 143 0 142 0 0 -213 0 -214 -208 -6 -207 -6 -35 -11 -35 -11 -75 -13 -75 -14 -50 -11 -50 -12 -60 -20 -60 -21 -40 -10 -40 -11 -95 -27 -95 -28 -130 -61 -130 -61 -31 -18 -32 -17 -68 -47 -69 -46 -105 -71 -105 -71 -20 -19 -20 -18 -75 -52 -75 -51 -40 -31 -40 -31 -68 -40 -68 -39 -32 -29 -32 -28 -61 -35 -60 -36 -47 -38 -46 -38 -88 -54 -88 -54 -95 -55 -95 -56 -50 -26 -50 -25 -50 -29 -50 -30 -30 -24 -30 -25 -55 -25 -55 -25 -85 -29 -85 -30 -69 -24 -69 -24 -29 0 -29 0 -22 -11 -21 -12 -70 -9 -71 -9 -60 -10 -60 -9 -85 -9 -85 -10 -190 0 -190 0 -20 8 z " />
  </g>
</svg>