<?xml version="1.0" encoding="utf-8"?>
<!DOCTYPE svg PUBLIC "-//W3C//DTD SVG 20010904//EN" "http://www.w3.org/TR/2001/REC-SVG-20010904/DTD/svg10.dtd">
<svg version="1.0" width="900pt" height="900pt" viewBox="0 0 900 900" preserveAspectRatio="xMidYMid meet" xmlns="http://www.w3.org/2000/svg">
  <g transform="translate(0,900)scale(.075,.075)">
    <path id="path1" d="M 6018 -11018 l -188 82 0 30 0 31 -345 149 -345 149 0 36 -1 36 -1052 455 -1052 456 -6 -246 -6 -245 -2 -103 -1 -102 -1020 0 -1020 0 0 4325 0 4325 1019 0 1019 0 6 -263 7 -262 0 -1167 -1 -1167 592 -3 593 -3 59 -30 59 -30 33 -39 33 -38 18 -47 18 -46 5 -1133 5 -1133 347 -151 347 -150 3 -37 3 -36 339 -147 338 -147 3 -3 3 -3 4 -30 3 -29 340 -147 340 -148 35 -55 35 -56 28 -34 27 -35 -2 -1369 -3 -1369 -30 -48 -30 -49 -40 -28 -40 -28 -145 0 -145 1 -187 81 z m -2437 4388 l 368 0 -5 698 -5 697 -5 73 -6 72 -441 -2 -442 -3 3 -650 3 -650 6 -124 6 -124 75 7 75 6 368 0 z M 7167 -10233 l -7 196 0 1233 0 1233 -592 3 -593 3 -46 21 -45 21 -37 32 -36 32 -28 57 -28 57 -5 1138 -5 1138 -347 151 -347 150 -3 36 -3 37 -90 39 -90 39 -252 109 -252 110 -3 31 -3 31 -340 147 -340 148 -28 47 -28 47 -35 42 -34 42 0 1364 0 1364 30 53 31 52 41 30 41 30 145 0 144 0 189 -82 189 -82 0 -30 0 -31 345 -149 345 -149 0 -36 1 -36 1052 -455 1052 -456 6 246 6 245 2 103 1 102 1020 0 1020 0 0 -4325 0 -4325 -1018 0 -1019 0 -6 197 z m -23 3261 l 5 8 -8 762 -7 761 -4 3 -5 3 -442 -3 -442 -4 5 -696 5 -697 5 -73 6 -72 438 0 439 0 5 8 z " />
  </g>
</svg>